<?xml version="1.0" encoding="UTF-8" standalone="no"?>
<!DOCTYPE svg PUBLIC "-//W3C//DTD SVG 1.1//EN" "http://www.w3.org/Graphics/SVG/1.1/DTD/svg11.dtd">
<svg width="100%" height="100%" viewBox="0 0 791 420" version="1.1" xmlns="http://www.w3.org/2000/svg" xmlns:xlink="http://www.w3.org/1999/xlink" xml:space="preserve" xmlns:serif="http://www.serif.com/" style="fill-rule:evenodd;clip-rule:evenodd;stroke-linejoin:round;stroke-miterlimit:2;">
    <g transform="matrix(1,0,0,1,-140,-465)">
        <path d="M140,885L140,780.007L211.094,709.979L140,639.995L140,535.006L211.094,465L560.999,465L560.999,570.023L491,639.995L560.999,709.979L560.999,815.003L491,885L140,885ZM861.006,465L931,535.006L931,709.979L895.993,745.031L931,780.007L931,885L510.035,885L579.015,815.003L579.015,709.979L510.035,639.995L579.015,570.023L579.015,465L861.006,465Z" style="fill:rgb(255,0,80);"/>
    </g>
</svg>
